<mxfile host="app.diagrams.net" agent="Mozilla/5.0 (X11; Ubuntu; Linux x86_64; rv:144.0) Gecko/20100101 Firefox/144.0" version="28.2.7">
  <diagram name="Página-1" id="-b0dUHZTkbSIevxEjcQ0">
    <mxGraphModel dx="1051" dy="615" grid="1" gridSize="10" guides="1" tooltips="1" connect="1" arrows="1" fold="1" page="1" pageScale="1" pageWidth="827" pageHeight="1169" math="0" shadow="0">
      <root>
        <mxCell id="0" />
        <mxCell id="1" parent="0" />
        <mxCell id="kVTUnNe3lJN0o_vpZhtB-13" style="edgeStyle=orthogonalEdgeStyle;rounded=0;orthogonalLoop=1;jettySize=auto;html=1;exitX=1;exitY=0.5;exitDx=0;exitDy=0;" edge="1" parent="1" source="kVTUnNe3lJN0o_vpZhtB-1" target="kVTUnNe3lJN0o_vpZhtB-7">
          <mxGeometry relative="1" as="geometry" />
        </mxCell>
        <mxCell id="kVTUnNe3lJN0o_vpZhtB-1" value="Empleados" style="rounded=0;whiteSpace=wrap;html=1;" vertex="1" parent="1">
          <mxGeometry x="560" y="170" width="120" height="60" as="geometry" />
        </mxCell>
        <mxCell id="kVTUnNe3lJN0o_vpZhtB-2" value="Nombre" style="ellipse;whiteSpace=wrap;html=1;" vertex="1" parent="1">
          <mxGeometry x="480" y="30" width="90" height="80" as="geometry" />
        </mxCell>
        <mxCell id="kVTUnNe3lJN0o_vpZhtB-3" value="&lt;u&gt;DNI&lt;/u&gt;" style="ellipse;whiteSpace=wrap;html=1;" vertex="1" parent="1">
          <mxGeometry x="610" y="20" width="80" height="80" as="geometry" />
        </mxCell>
        <mxCell id="kVTUnNe3lJN0o_vpZhtB-7" value="Teléfono" style="ellipse;whiteSpace=wrap;html=1;" vertex="1" parent="1">
          <mxGeometry x="710" y="50" width="70" height="80" as="geometry" />
        </mxCell>
        <mxCell id="kVTUnNe3lJN0o_vpZhtB-8" value="Fecha nacimiento" style="ellipse;whiteSpace=wrap;html=1;" vertex="1" parent="1">
          <mxGeometry x="720" y="250" width="80" height="80" as="geometry" />
        </mxCell>
        <mxCell id="kVTUnNe3lJN0o_vpZhtB-9" value="Teléfono" style="ellipse;whiteSpace=wrap;html=1;" vertex="1" parent="1">
          <mxGeometry x="414" y="110" width="90" height="80" as="geometry" />
        </mxCell>
        <mxCell id="kVTUnNe3lJN0o_vpZhtB-11" value="Sueldo" style="ellipse;whiteSpace=wrap;html=1;" vertex="1" parent="1">
          <mxGeometry x="470" y="220" width="60" height="80" as="geometry" />
        </mxCell>
        <mxCell id="kVTUnNe3lJN0o_vpZhtB-12" style="edgeStyle=orthogonalEdgeStyle;rounded=0;orthogonalLoop=1;jettySize=auto;html=1;exitX=0.25;exitY=0;exitDx=0;exitDy=0;entryX=0.667;entryY=1;entryDx=0;entryDy=0;entryPerimeter=0;" edge="1" parent="1" source="kVTUnNe3lJN0o_vpZhtB-1" target="kVTUnNe3lJN0o_vpZhtB-2">
          <mxGeometry relative="1" as="geometry" />
        </mxCell>
        <mxCell id="kVTUnNe3lJN0o_vpZhtB-16" value="" style="endArrow=none;html=1;rounded=0;entryX=1;entryY=1;entryDx=0;entryDy=0;exitX=0;exitY=0;exitDx=0;exitDy=0;" edge="1" parent="1" source="kVTUnNe3lJN0o_vpZhtB-8" target="kVTUnNe3lJN0o_vpZhtB-1">
          <mxGeometry width="50" height="50" relative="1" as="geometry">
            <mxPoint x="390" y="350" as="sourcePoint" />
            <mxPoint x="440" y="300" as="targetPoint" />
          </mxGeometry>
        </mxCell>
        <mxCell id="kVTUnNe3lJN0o_vpZhtB-18" style="edgeStyle=orthogonalEdgeStyle;rounded=0;orthogonalLoop=1;jettySize=auto;html=1;exitX=0.75;exitY=0;exitDx=0;exitDy=0;entryX=0.25;entryY=0.95;entryDx=0;entryDy=0;entryPerimeter=0;" edge="1" parent="1" source="kVTUnNe3lJN0o_vpZhtB-1" target="kVTUnNe3lJN0o_vpZhtB-3">
          <mxGeometry relative="1" as="geometry" />
        </mxCell>
        <mxCell id="kVTUnNe3lJN0o_vpZhtB-19" value="Localidad" style="rounded=0;whiteSpace=wrap;html=1;" vertex="1" parent="1">
          <mxGeometry x="80" y="460" width="120" height="60" as="geometry" />
        </mxCell>
        <mxCell id="kVTUnNe3lJN0o_vpZhtB-47" style="edgeStyle=orthogonalEdgeStyle;rounded=0;orthogonalLoop=1;jettySize=auto;html=1;exitX=0.5;exitY=0;exitDx=0;exitDy=0;entryX=0.5;entryY=1;entryDx=0;entryDy=0;" edge="1" parent="1" source="kVTUnNe3lJN0o_vpZhtB-20" target="kVTUnNe3lJN0o_vpZhtB-46">
          <mxGeometry relative="1" as="geometry" />
        </mxCell>
        <mxCell id="kVTUnNe3lJN0o_vpZhtB-20" value="Provincia" style="rounded=0;whiteSpace=wrap;html=1;" vertex="1" parent="1">
          <mxGeometry x="570" y="460" width="120" height="60" as="geometry" />
        </mxCell>
        <mxCell id="kVTUnNe3lJN0o_vpZhtB-40" style="edgeStyle=orthogonalEdgeStyle;rounded=0;orthogonalLoop=1;jettySize=auto;html=1;exitX=0.5;exitY=1;exitDx=0;exitDy=0;entryX=0.5;entryY=0;entryDx=0;entryDy=0;" edge="1" parent="1" source="kVTUnNe3lJN0o_vpZhtB-21" target="kVTUnNe3lJN0o_vpZhtB-37">
          <mxGeometry relative="1" as="geometry" />
        </mxCell>
        <mxCell id="kVTUnNe3lJN0o_vpZhtB-21" value="Region" style="whiteSpace=wrap;html=1;" vertex="1" parent="1">
          <mxGeometry x="80" y="130" width="120" height="60" as="geometry" />
        </mxCell>
        <mxCell id="kVTUnNe3lJN0o_vpZhtB-22" value="" style="endArrow=none;html=1;rounded=0;entryX=0;entryY=1;entryDx=0;entryDy=0;exitX=0.983;exitY=0.288;exitDx=0;exitDy=0;exitPerimeter=0;" edge="1" parent="1" source="kVTUnNe3lJN0o_vpZhtB-11" target="kVTUnNe3lJN0o_vpZhtB-1">
          <mxGeometry width="50" height="50" relative="1" as="geometry">
            <mxPoint x="390" y="350" as="sourcePoint" />
            <mxPoint x="440" y="300" as="targetPoint" />
          </mxGeometry>
        </mxCell>
        <mxCell id="kVTUnNe3lJN0o_vpZhtB-23" value="Nombre" style="ellipse;whiteSpace=wrap;html=1;" vertex="1" parent="1">
          <mxGeometry x="230" y="520" width="100" height="80" as="geometry" />
        </mxCell>
        <mxCell id="kVTUnNe3lJN0o_vpZhtB-24" value="Cod. Localida" style="ellipse;whiteSpace=wrap;html=1;" vertex="1" parent="1">
          <mxGeometry x="220" y="360" width="100" height="80" as="geometry" />
        </mxCell>
        <mxCell id="kVTUnNe3lJN0o_vpZhtB-26" value="" style="endArrow=none;html=1;rounded=0;entryX=1;entryY=0;entryDx=0;entryDy=0;exitX=-0.01;exitY=0.613;exitDx=0;exitDy=0;exitPerimeter=0;" edge="1" parent="1" source="kVTUnNe3lJN0o_vpZhtB-24" target="kVTUnNe3lJN0o_vpZhtB-19">
          <mxGeometry width="50" height="50" relative="1" as="geometry">
            <mxPoint x="390" y="350" as="sourcePoint" />
            <mxPoint x="440" y="300" as="targetPoint" />
          </mxGeometry>
        </mxCell>
        <mxCell id="kVTUnNe3lJN0o_vpZhtB-27" value="" style="endArrow=none;html=1;rounded=0;exitX=1;exitY=1;exitDx=0;exitDy=0;entryX=0;entryY=0.5;entryDx=0;entryDy=0;" edge="1" parent="1" source="kVTUnNe3lJN0o_vpZhtB-19" target="kVTUnNe3lJN0o_vpZhtB-23">
          <mxGeometry width="50" height="50" relative="1" as="geometry">
            <mxPoint x="390" y="410" as="sourcePoint" />
            <mxPoint x="440" y="360" as="targetPoint" />
          </mxGeometry>
        </mxCell>
        <mxCell id="kVTUnNe3lJN0o_vpZhtB-28" value="Cod. Prov." style="ellipse;whiteSpace=wrap;html=1;" vertex="1" parent="1">
          <mxGeometry x="740" y="520" width="80" height="80" as="geometry" />
        </mxCell>
        <mxCell id="kVTUnNe3lJN0o_vpZhtB-29" value="Nombre" style="ellipse;whiteSpace=wrap;html=1;" vertex="1" parent="1">
          <mxGeometry x="740" y="380" width="80" height="80" as="geometry" />
        </mxCell>
        <mxCell id="kVTUnNe3lJN0o_vpZhtB-31" value="" style="endArrow=none;html=1;rounded=0;entryX=1;entryY=0;entryDx=0;entryDy=0;exitX=0.075;exitY=0.688;exitDx=0;exitDy=0;exitPerimeter=0;" edge="1" parent="1" source="kVTUnNe3lJN0o_vpZhtB-29" target="kVTUnNe3lJN0o_vpZhtB-20">
          <mxGeometry width="50" height="50" relative="1" as="geometry">
            <mxPoint x="390" y="410" as="sourcePoint" />
            <mxPoint x="440" y="360" as="targetPoint" />
          </mxGeometry>
        </mxCell>
        <mxCell id="kVTUnNe3lJN0o_vpZhtB-32" value="" style="endArrow=none;html=1;rounded=0;entryX=0;entryY=0.5;entryDx=0;entryDy=0;exitX=1;exitY=1;exitDx=0;exitDy=0;" edge="1" parent="1" source="kVTUnNe3lJN0o_vpZhtB-20" target="kVTUnNe3lJN0o_vpZhtB-28">
          <mxGeometry width="50" height="50" relative="1" as="geometry">
            <mxPoint x="390" y="410" as="sourcePoint" />
            <mxPoint x="440" y="360" as="targetPoint" />
          </mxGeometry>
        </mxCell>
        <mxCell id="kVTUnNe3lJN0o_vpZhtB-33" value="Cod. Reg." style="ellipse;whiteSpace=wrap;html=1;" vertex="1" parent="1">
          <mxGeometry x="180" y="10" width="100" height="80" as="geometry" />
        </mxCell>
        <mxCell id="kVTUnNe3lJN0o_vpZhtB-34" value="Nombre" style="ellipse;whiteSpace=wrap;html=1;" vertex="1" parent="1">
          <mxGeometry x="20" y="10" width="100" height="80" as="geometry" />
        </mxCell>
        <mxCell id="kVTUnNe3lJN0o_vpZhtB-35" value="" style="endArrow=none;html=1;rounded=0;entryX=0;entryY=0;entryDx=0;entryDy=0;exitX=0.5;exitY=1;exitDx=0;exitDy=0;" edge="1" parent="1" source="kVTUnNe3lJN0o_vpZhtB-34" target="kVTUnNe3lJN0o_vpZhtB-21">
          <mxGeometry width="50" height="50" relative="1" as="geometry">
            <mxPoint x="390" y="290" as="sourcePoint" />
            <mxPoint x="440" y="240" as="targetPoint" />
          </mxGeometry>
        </mxCell>
        <mxCell id="kVTUnNe3lJN0o_vpZhtB-36" value="" style="endArrow=none;html=1;rounded=0;entryX=1;entryY=0;entryDx=0;entryDy=0;exitX=0.5;exitY=1;exitDx=0;exitDy=0;" edge="1" parent="1" source="kVTUnNe3lJN0o_vpZhtB-33" target="kVTUnNe3lJN0o_vpZhtB-21">
          <mxGeometry width="50" height="50" relative="1" as="geometry">
            <mxPoint x="390" y="290" as="sourcePoint" />
            <mxPoint x="440" y="240" as="targetPoint" />
          </mxGeometry>
        </mxCell>
        <mxCell id="kVTUnNe3lJN0o_vpZhtB-41" style="edgeStyle=orthogonalEdgeStyle;rounded=0;orthogonalLoop=1;jettySize=auto;html=1;exitX=0.5;exitY=1;exitDx=0;exitDy=0;" edge="1" parent="1" source="kVTUnNe3lJN0o_vpZhtB-37" target="kVTUnNe3lJN0o_vpZhtB-19">
          <mxGeometry relative="1" as="geometry" />
        </mxCell>
        <mxCell id="kVTUnNe3lJN0o_vpZhtB-37" value="" style="rhombus;whiteSpace=wrap;html=1;" vertex="1" parent="1">
          <mxGeometry x="100" y="280" width="80" height="80" as="geometry" />
        </mxCell>
        <mxCell id="kVTUnNe3lJN0o_vpZhtB-44" style="edgeStyle=orthogonalEdgeStyle;rounded=0;orthogonalLoop=1;jettySize=auto;html=1;exitX=1;exitY=0.5;exitDx=0;exitDy=0;entryX=0;entryY=0.5;entryDx=0;entryDy=0;" edge="1" parent="1" source="kVTUnNe3lJN0o_vpZhtB-38" target="kVTUnNe3lJN0o_vpZhtB-20">
          <mxGeometry relative="1" as="geometry" />
        </mxCell>
        <mxCell id="kVTUnNe3lJN0o_vpZhtB-38" value="pertenece" style="rhombus;whiteSpace=wrap;html=1;" vertex="1" parent="1">
          <mxGeometry x="390" y="450" width="80" height="80" as="geometry" />
        </mxCell>
        <mxCell id="kVTUnNe3lJN0o_vpZhtB-43" style="edgeStyle=orthogonalEdgeStyle;rounded=0;orthogonalLoop=1;jettySize=auto;html=1;exitX=1;exitY=0.5;exitDx=0;exitDy=0;entryX=0;entryY=0.5;entryDx=0;entryDy=0;" edge="1" parent="1" source="kVTUnNe3lJN0o_vpZhtB-19" target="kVTUnNe3lJN0o_vpZhtB-38">
          <mxGeometry relative="1" as="geometry" />
        </mxCell>
        <mxCell id="kVTUnNe3lJN0o_vpZhtB-45" value="" style="endArrow=none;html=1;rounded=0;entryX=0;entryY=0.5;entryDx=0;entryDy=0;exitX=1;exitY=0.5;exitDx=0;exitDy=0;" edge="1" parent="1" source="kVTUnNe3lJN0o_vpZhtB-9" target="kVTUnNe3lJN0o_vpZhtB-1">
          <mxGeometry width="50" height="50" relative="1" as="geometry">
            <mxPoint x="390" y="350" as="sourcePoint" />
            <mxPoint x="440" y="300" as="targetPoint" />
          </mxGeometry>
        </mxCell>
        <mxCell id="kVTUnNe3lJN0o_vpZhtB-46" value="" style="rhombus;whiteSpace=wrap;html=1;" vertex="1" parent="1">
          <mxGeometry x="590" y="300" width="80" height="80" as="geometry" />
        </mxCell>
        <mxCell id="kVTUnNe3lJN0o_vpZhtB-48" style="edgeStyle=orthogonalEdgeStyle;rounded=0;orthogonalLoop=1;jettySize=auto;html=1;exitX=0.5;exitY=0;exitDx=0;exitDy=0;entryX=0.583;entryY=1.017;entryDx=0;entryDy=0;entryPerimeter=0;" edge="1" parent="1" source="kVTUnNe3lJN0o_vpZhtB-46" target="kVTUnNe3lJN0o_vpZhtB-1">
          <mxGeometry relative="1" as="geometry" />
        </mxCell>
      </root>
    </mxGraphModel>
  </diagram>
</mxfile>
